<svg width="108" height="108" viewBox="0 0 108 108" fill="none" xmlns="http://www.w3.org/2000/svg">
<path fill-rule="evenodd" clip-rule="evenodd" d="M53.9975 18.666C44.9446 18.666 43.8095 18.7044 40.2541 18.8666C36.7062 19.0284 34.283 19.592 32.1628 20.416C29.9708 21.2678 28.1119 22.4075 26.2587 24.2606C24.4056 26.1139 23.2658 27.9728 22.4141 30.1648C21.59 32.285 21.0265 34.7081 20.8647 38.2561C20.7024 41.8114 20.6641 42.9466 20.6641 51.9994C20.6641 61.0521 20.7024 62.1873 20.8647 65.7426C21.0265 69.2906 21.59 71.7137 22.4141 73.834C23.2658 76.0259 24.4056 77.8848 26.2587 79.7381C28.1119 81.5912 29.9708 82.7309 32.1628 83.5828C34.283 84.4067 36.7062 84.9703 40.2541 85.1321C43.8095 85.2943 44.9446 85.3327 53.9975 85.3327C63.0502 85.3327 64.1853 85.2943 67.7407 85.1321C71.2886 84.9703 73.7118 84.4067 75.832 83.5828C78.024 82.7309 79.8829 81.5912 81.7361 79.7381C83.5892 77.8848 84.729 76.0259 85.5808 73.834C86.4048 71.7137 86.9683 69.2906 87.1301 65.7426C87.2924 62.1873 87.3307 61.0521 87.3307 51.9994C87.3307 42.9466 87.2924 41.8114 87.1301 38.2561C86.9683 34.7081 86.4048 32.285 85.5808 30.1648C84.729 27.9728 83.5892 26.1139 81.7361 24.2606C79.8829 22.4075 78.024 21.2678 75.832 20.416C73.7118 19.592 71.2886 19.0284 67.7407 18.8666C64.1853 18.7044 63.0502 18.666 53.9975 18.666ZM53.9993 24.6709C62.8996 24.6709 63.9539 24.7049 67.4687 24.8653C70.7187 25.0135 72.4837 25.5565 73.6583 26.013C75.2142 26.6177 76.3246 27.34 77.4909 28.5065C78.6575 29.6729 79.3798 30.7833 79.9845 32.3392C80.441 33.5138 80.984 35.2787 81.1322 38.5287C81.2925 42.0436 81.3265 43.0979 81.3265 51.9983C81.3265 60.8986 81.2925 61.9529 81.1322 65.4678C80.984 68.7177 80.441 70.4827 79.9845 71.6573C79.3798 73.2132 78.6575 74.3236 77.4909 75.49C76.3246 76.6565 75.2142 77.3788 73.6583 77.9835C72.4837 78.44 70.7187 78.983 67.4687 79.1312C63.9544 79.2916 62.9002 79.3256 53.9993 79.3256C45.0982 79.3256 44.0442 79.2916 40.5297 79.1312C37.2797 78.983 35.5147 78.44 34.3402 77.9835C32.7843 77.3788 31.6739 76.6565 30.5075 75.49C29.3411 74.3236 28.6187 73.2132 28.014 71.6573C27.5575 70.4827 27.0144 68.7177 26.8662 65.4678C26.7059 61.9529 26.6719 60.8986 26.6719 51.9983C26.6719 43.0979 26.7059 42.0436 26.8662 38.5287C27.0144 35.2787 27.5575 33.5138 28.014 32.3392C28.6187 30.7833 29.341 29.6729 30.5075 28.5065C31.6739 27.34 32.7843 26.6177 34.3402 26.013C35.5147 25.5565 37.2797 25.0135 40.5297 24.8653C44.0445 24.7049 45.0989 24.6709 53.9993 24.6709Z" fill="url(#paint0_linear_249_135)"/>
<path fill-rule="evenodd" clip-rule="evenodd" d="M54.0018 63.1109C47.8652 63.1109 42.8906 58.1363 42.8906 51.9998C42.8906 45.8633 47.8652 40.8887 54.0018 40.8887C60.1383 40.8887 65.1128 45.8633 65.1128 51.9998C65.1128 58.1363 60.1383 63.1109 54.0018 63.1109ZM54 34.8838C44.5463 34.8838 36.8828 42.5473 36.8828 52.001C36.8828 61.4545 44.5463 69.118 54 69.118C63.4535 69.118 71.117 61.4545 71.117 52.001C71.117 42.5473 63.4535 34.8838 54 34.8838Z" fill="url(#paint1_linear_249_135)"/>
<path fill-rule="evenodd" clip-rule="evenodd" d="M75.793 34.2071C75.793 36.4163 74.0021 38.207 71.7929 38.207C69.5839 38.207 67.793 36.4163 67.793 34.2071C67.793 31.9979 69.5839 30.207 71.7929 30.207C74.0021 30.207 75.793 31.9979 75.793 34.2071Z" fill="url(#paint2_linear_249_135)"/>
<g filter="url(#filter0_bdii_249_135)">
<rect x="4" y="2" width="100" height="100" rx="12" fill="white" fill-opacity="0.530029"/>
</g>
<g opacity="0.529578" filter="url(#filter1_f_249_135)">
<path fill-rule="evenodd" clip-rule="evenodd" d="M62.3334 27C53.2805 27 52.1454 27.0384 48.59 27.2006C45.0421 27.3624 42.619 27.926 40.4987 28.75C38.3068 29.6017 36.4479 30.7415 34.5946 32.5946C32.7415 34.4479 31.6017 36.3068 30.75 38.4987C29.926 40.619 29.3624 43.0421 29.2006 46.59C29.0384 50.1454 29 51.2805 29 60.3334C29 69.3861 29.0384 70.5213 29.2006 74.0766C29.3624 77.6246 29.926 80.0477 30.75 82.1679C31.6017 84.3599 32.7415 86.2188 34.5946 88.072C36.4479 89.9251 38.3068 91.0649 40.4987 91.9168C42.619 92.7407 45.0421 93.3043 48.59 93.4661C52.1454 93.6283 53.2805 93.6667 62.3334 93.6667C71.3861 93.6667 72.5213 93.6283 76.0766 93.4661C79.6246 93.3043 82.0477 92.7407 84.1679 91.9168C86.3599 91.0649 88.2188 89.9251 90.072 88.072C91.9251 86.2188 93.0649 84.3599 93.9168 82.1679C94.7407 80.0477 95.3043 77.6246 95.4661 74.0766C95.6283 70.5213 95.6667 69.3861 95.6667 60.3334C95.6667 51.2805 95.6283 50.1454 95.4661 46.59C95.3043 43.0421 94.7407 40.619 93.9168 38.4987C93.0649 36.3068 91.9251 34.4479 90.072 32.5946C88.2188 30.7415 86.3599 29.6017 84.1679 28.75C82.0477 27.926 79.6246 27.3624 76.0766 27.2006C72.5213 27.0384 71.3861 27 62.3334 27ZM62.3352 33.0049C71.2355 33.0049 72.2898 33.0389 75.8047 33.1993C79.0546 33.3475 80.8196 33.8905 81.9942 34.347C83.5501 34.9517 84.6605 35.674 85.8269 36.8405C86.9934 38.0069 87.7157 39.1173 88.3204 40.6732C88.7769 41.8478 89.3199 43.6127 89.4681 46.8627C89.6285 50.3776 89.6625 51.4319 89.6625 60.3323C89.6625 69.2326 89.6285 70.2869 89.4681 73.8017C89.3199 77.0517 88.7769 78.8167 88.3204 79.9913C87.7157 81.5472 86.9934 82.6576 85.8269 83.824C84.6605 84.9905 83.5501 85.7128 81.9942 86.3175C80.8196 86.774 79.0546 87.317 75.8047 87.4652C72.2903 87.6256 71.2362 87.6596 62.3352 87.6596C53.4341 87.6596 52.3801 87.6256 48.8656 87.4652C45.6157 87.317 43.8507 86.774 42.6761 86.3175C41.1202 85.7128 40.0098 84.9905 38.8434 83.824C37.677 82.6576 36.9546 81.5472 36.3499 79.9913C35.8934 78.8167 35.3504 77.0517 35.2022 73.8017C35.0418 70.2869 35.0078 69.2326 35.0078 60.3323C35.0078 51.4319 35.0418 50.3776 35.2022 46.8627C35.3504 43.6127 35.8934 41.8478 36.3499 40.6732C36.9546 39.1173 37.6769 38.0069 38.8434 36.8405C40.0098 35.674 41.1202 34.9517 42.6761 34.347C43.8507 33.8905 45.6157 33.3475 48.8656 33.1993C52.3805 33.0389 53.4348 33.0049 62.3352 33.0049Z" fill="url(#paint3_linear_249_135)"/>
</g>
<g opacity="0.529578" filter="url(#filter2_f_249_135)">
<path fill-rule="evenodd" clip-rule="evenodd" d="M62.3338 71.4459C56.1972 71.4459 51.2227 66.4713 51.2227 60.3348C51.2227 54.1982 56.1972 49.2236 62.3338 49.2236C68.4703 49.2236 73.4449 54.1982 73.4449 60.3348C73.4449 66.4713 68.4703 71.4459 62.3338 71.4459ZM62.332 43.2168C52.8784 43.2168 45.2148 50.8803 45.2148 60.334C45.2148 69.7875 52.8784 77.451 62.332 77.451C71.7855 77.451 79.4491 69.7875 79.4491 60.334C79.4491 50.8803 71.7855 43.2168 62.332 43.2168Z" fill="url(#paint4_linear_249_135)"/>
</g>
<g opacity="0.529578" filter="url(#filter3_f_249_135)">
<path fill-rule="evenodd" clip-rule="evenodd" d="M84.1289 42.5391C84.1289 44.7483 82.338 46.5391 80.1288 46.5391C77.9198 46.5391 76.1289 44.7483 76.1289 42.5391C76.1289 40.33 77.9198 38.5391 80.1288 38.5391C82.338 38.5391 84.1289 40.33 84.1289 42.5391Z" fill="url(#paint5_linear_249_135)"/>
</g>
<g filter="url(#filter4_d_249_135)">
<path fill-rule="evenodd" clip-rule="evenodd" d="M53.9975 18.666C44.9446 18.666 43.8095 18.7044 40.2541 18.8666C36.7062 19.0284 34.283 19.592 32.1628 20.416C29.9708 21.2678 28.1119 22.4075 26.2587 24.2606C24.4056 26.1139 23.2658 27.9728 22.4141 30.1648C21.59 32.285 21.0265 34.7081 20.8647 38.2561C20.7024 41.8114 20.6641 42.9466 20.6641 51.9994C20.6641 61.0521 20.7024 62.1873 20.8647 65.7426C21.0265 69.2906 21.59 71.7137 22.4141 73.834C23.2658 76.0259 24.4056 77.8848 26.2587 79.7381C28.1119 81.5912 29.9708 82.7309 32.1628 83.5828C34.283 84.4067 36.7062 84.9703 40.2541 85.1321C43.8095 85.2943 44.9446 85.3327 53.9975 85.3327C63.0502 85.3327 64.1853 85.2943 67.7407 85.1321C71.2886 84.9703 73.7118 84.4067 75.832 83.5828C78.024 82.7309 79.8829 81.5912 81.7361 79.7381C83.5892 77.8848 84.729 76.0259 85.5808 73.834C86.4048 71.7137 86.9683 69.2906 87.1301 65.7426C87.2924 62.1873 87.3307 61.0521 87.3307 51.9994C87.3307 42.9466 87.2924 41.8114 87.1301 38.2561C86.9683 34.7081 86.4048 32.285 85.5808 30.1648C84.729 27.9728 83.5892 26.1139 81.7361 24.2606C79.8829 22.4075 78.024 21.2678 75.832 20.416C73.7118 19.592 71.2886 19.0284 67.7407 18.8666C64.1853 18.7044 63.0502 18.666 53.9975 18.666ZM53.9993 24.6709C62.8996 24.6709 63.9539 24.7049 67.4687 24.8653C70.7187 25.0135 72.4837 25.5565 73.6583 26.013C75.2142 26.6177 76.3246 27.34 77.4909 28.5065C78.6575 29.6729 79.3798 30.7833 79.9845 32.3392C80.441 33.5138 80.984 35.2787 81.1322 38.5287C81.2925 42.0436 81.3265 43.0979 81.3265 51.9983C81.3265 60.8986 81.2925 61.9529 81.1322 65.4678C80.984 68.7177 80.441 70.4827 79.9845 71.6573C79.3798 73.2132 78.6575 74.3236 77.4909 75.49C76.3246 76.6565 75.2142 77.3788 73.6583 77.9835C72.4837 78.44 70.7187 78.983 67.4687 79.1312C63.9544 79.2916 62.9002 79.3256 53.9993 79.3256C45.0982 79.3256 44.0442 79.2916 40.5297 79.1312C37.2797 78.983 35.5147 78.44 34.3402 77.9835C32.7843 77.3788 31.6739 76.6565 30.5075 75.49C29.3411 74.3236 28.6187 73.2132 28.014 71.6573C27.5575 70.4827 27.0144 68.7177 26.8662 65.4678C26.7059 61.9529 26.6719 60.8986 26.6719 51.9983C26.6719 43.0979 26.7059 42.0436 26.8662 38.5287C27.0144 35.2787 27.5575 33.5138 28.014 32.3392C28.6187 30.7833 29.341 29.6729 30.5075 28.5065C31.6739 27.34 32.7843 26.6177 34.3402 26.013C35.5147 25.5565 37.2797 25.0135 40.5297 24.8653C44.0445 24.7049 45.0989 24.6709 53.9993 24.6709Z" fill="url(#paint6_linear_249_135)"/>
</g>
<g filter="url(#filter5_d_249_135)">
<path fill-rule="evenodd" clip-rule="evenodd" d="M54.0018 63.1109C47.8652 63.1109 42.8906 58.1363 42.8906 51.9998C42.8906 45.8633 47.8652 40.8887 54.0018 40.8887C60.1383 40.8887 65.1128 45.8633 65.1128 51.9998C65.1128 58.1363 60.1383 63.1109 54.0018 63.1109ZM54 34.8838C44.5463 34.8838 36.8828 42.5473 36.8828 52.001C36.8828 61.4545 44.5463 69.118 54 69.118C63.4535 69.118 71.117 61.4545 71.117 52.001C71.117 42.5473 63.4535 34.8838 54 34.8838Z" fill="url(#paint7_linear_249_135)"/>
</g>
<g filter="url(#filter6_d_249_135)">
<path fill-rule="evenodd" clip-rule="evenodd" d="M75.793 34.2071C75.793 36.4163 74.0021 38.207 71.7929 38.207C69.5839 38.207 67.793 36.4163 67.793 34.2071C67.793 31.9979 69.5839 30.207 71.7929 30.207C74.0021 30.207 75.793 31.9979 75.793 34.2071Z" fill="url(#paint8_linear_249_135)"/>
</g>
<defs>
<filter id="filter0_bdii_249_135" x="-6.87313" y="-8.87313" width="121.746" height="121.746" filterUnits="userSpaceOnUse" color-interpolation-filters="sRGB">
<feFlood flood-opacity="0" result="BackgroundImageFix"/>
<feGaussianBlur in="BackgroundImageFix" stdDeviation="5.43656"/>
<feComposite in2="SourceAlpha" operator="in" result="effect1_backgroundBlur_249_135"/>
<feColorMatrix in="SourceAlpha" type="matrix" values="0 0 0 0 0 0 0 0 0 0 0 0 0 0 0 0 0 0 127 0" result="hardAlpha"/>
<feOffset dy="2"/>
<feGaussianBlur stdDeviation="2"/>
<feColorMatrix type="matrix" values="0 0 0 0 0 0 0 0 0 0 0 0 0 0 0 0 0 0 0.12 0"/>
<feBlend mode="normal" in2="effect1_backgroundBlur_249_135" result="effect2_dropShadow_249_135"/>
<feBlend mode="normal" in="SourceGraphic" in2="effect2_dropShadow_249_135" result="shape"/>
<feColorMatrix in="SourceAlpha" type="matrix" values="0 0 0 0 0 0 0 0 0 0 0 0 0 0 0 0 0 0 127 0" result="hardAlpha"/>
<feOffset dx="8" dy="8"/>
<feGaussianBlur stdDeviation="12"/>
<feComposite in2="hardAlpha" operator="arithmetic" k2="-1" k3="1"/>
<feColorMatrix type="matrix" values="0 0 0 0 1 0 0 0 0 1 0 0 0 0 1 0 0 0 1 0"/>
<feBlend mode="normal" in2="shape" result="effect3_innerShadow_249_135"/>
<feColorMatrix in="SourceAlpha" type="matrix" values="0 0 0 0 0 0 0 0 0 0 0 0 0 0 0 0 0 0 127 0" result="hardAlpha"/>
<feOffset dx="-4" dy="-4"/>
<feGaussianBlur stdDeviation="12"/>
<feComposite in2="hardAlpha" operator="arithmetic" k2="-1" k3="1"/>
<feColorMatrix type="matrix" values="0 0 0 0 1 0 0 0 0 1 0 0 0 0 1 0 0 0 0.04 0"/>
<feBlend mode="normal" in2="effect3_innerShadow_249_135" result="effect4_innerShadow_249_135"/>
</filter>
<filter id="filter1_f_249_135" x="18.1269" y="16.1269" width="88.4142" height="88.4132" filterUnits="userSpaceOnUse" color-interpolation-filters="sRGB">
<feFlood flood-opacity="0" result="BackgroundImageFix"/>
<feBlend mode="normal" in="SourceGraphic" in2="BackgroundImageFix" result="shape"/>
<feGaussianBlur stdDeviation="5.43656" result="effect1_foregroundBlur_249_135"/>
</filter>
<filter id="filter2_f_249_135" x="34.3417" y="32.3437" width="55.9806" height="55.9806" filterUnits="userSpaceOnUse" color-interpolation-filters="sRGB">
<feFlood flood-opacity="0" result="BackgroundImageFix"/>
<feBlend mode="normal" in="SourceGraphic" in2="BackgroundImageFix" result="shape"/>
<feGaussianBlur stdDeviation="5.43656" result="effect1_foregroundBlur_249_135"/>
</filter>
<filter id="filter3_f_249_135" x="65.2558" y="27.6659" width="29.7463" height="29.7463" filterUnits="userSpaceOnUse" color-interpolation-filters="sRGB">
<feFlood flood-opacity="0" result="BackgroundImageFix"/>
<feBlend mode="normal" in="SourceGraphic" in2="BackgroundImageFix" result="shape"/>
<feGaussianBlur stdDeviation="5.43656" result="effect1_foregroundBlur_249_135"/>
</filter>
<filter id="filter4_d_249_135" x="16.6641" y="12.666" width="74.668" height="74.667" filterUnits="userSpaceOnUse" color-interpolation-filters="sRGB">
<feFlood flood-opacity="0" result="BackgroundImageFix"/>
<feColorMatrix in="SourceAlpha" type="matrix" values="0 0 0 0 0 0 0 0 0 0 0 0 0 0 0 0 0 0 127 0" result="hardAlpha"/>
<feOffset dy="-2"/>
<feGaussianBlur stdDeviation="2"/>
<feColorMatrix type="matrix" values="0 0 0 0 1 0 0 0 0 1 0 0 0 0 1 0 0 0 1 0"/>
<feBlend mode="normal" in2="BackgroundImageFix" result="effect1_dropShadow_249_135"/>
<feBlend mode="normal" in="SourceGraphic" in2="effect1_dropShadow_249_135" result="shape"/>
</filter>
<filter id="filter5_d_249_135" x="32.8828" y="28.8838" width="42.2344" height="42.2344" filterUnits="userSpaceOnUse" color-interpolation-filters="sRGB">
<feFlood flood-opacity="0" result="BackgroundImageFix"/>
<feColorMatrix in="SourceAlpha" type="matrix" values="0 0 0 0 0 0 0 0 0 0 0 0 0 0 0 0 0 0 127 0" result="hardAlpha"/>
<feOffset dy="-2"/>
<feGaussianBlur stdDeviation="2"/>
<feColorMatrix type="matrix" values="0 0 0 0 1 0 0 0 0 1 0 0 0 0 1 0 0 0 1 0"/>
<feBlend mode="normal" in2="BackgroundImageFix" result="effect1_dropShadow_249_135"/>
<feBlend mode="normal" in="SourceGraphic" in2="effect1_dropShadow_249_135" result="shape"/>
</filter>
<filter id="filter6_d_249_135" x="63.793" y="24.207" width="16" height="16" filterUnits="userSpaceOnUse" color-interpolation-filters="sRGB">
<feFlood flood-opacity="0" result="BackgroundImageFix"/>
<feColorMatrix in="SourceAlpha" type="matrix" values="0 0 0 0 0 0 0 0 0 0 0 0 0 0 0 0 0 0 127 0" result="hardAlpha"/>
<feOffset dy="-2"/>
<feGaussianBlur stdDeviation="2"/>
<feColorMatrix type="matrix" values="0 0 0 0 1 0 0 0 0 1 0 0 0 0 1 0 0 0 1 0"/>
<feBlend mode="normal" in2="BackgroundImageFix" result="effect1_dropShadow_249_135"/>
<feBlend mode="normal" in="SourceGraphic" in2="effect1_dropShadow_249_135" result="shape"/>
</filter>
<linearGradient id="paint0_linear_249_135" x1="53.9974" y1="118.666" x2="120.664" y2="51.9994" gradientUnits="userSpaceOnUse">
<stop stop-color="#FFD522"/>
<stop offset="0.497382" stop-color="#F1000B"/>
<stop offset="1" stop-color="#B900B3"/>
</linearGradient>
<linearGradient id="paint1_linear_249_135" x1="53.9999" y1="86.2351" x2="88.2341" y2="52.0009" gradientUnits="userSpaceOnUse">
<stop stop-color="#FFD522"/>
<stop offset="0.497382" stop-color="#F1000B"/>
<stop offset="1" stop-color="#B900B3"/>
</linearGradient>
<linearGradient id="paint2_linear_249_135" x1="71.793" y1="42.207" x2="79.793" y2="34.207" gradientUnits="userSpaceOnUse">
<stop stop-color="#FFD522"/>
<stop offset="0.497382" stop-color="#F1000B"/>
<stop offset="1" stop-color="#B900B3"/>
</linearGradient>
<linearGradient id="paint3_linear_249_135" x1="62.3333" y1="127" x2="129" y2="60.3333" gradientUnits="userSpaceOnUse">
<stop stop-color="#FFD522"/>
<stop offset="0.497382" stop-color="#F1000B"/>
<stop offset="1" stop-color="#B900B3"/>
</linearGradient>
<linearGradient id="paint4_linear_249_135" x1="62.332" y1="94.5681" x2="96.5662" y2="60.3339" gradientUnits="userSpaceOnUse">
<stop stop-color="#FFD522"/>
<stop offset="0.497382" stop-color="#F1000B"/>
<stop offset="1" stop-color="#B900B3"/>
</linearGradient>
<linearGradient id="paint5_linear_249_135" x1="80.1289" y1="50.5391" x2="88.1289" y2="42.5391" gradientUnits="userSpaceOnUse">
<stop stop-color="#FFD522"/>
<stop offset="0.497382" stop-color="#F1000B"/>
<stop offset="1" stop-color="#B900B3"/>
</linearGradient>
<linearGradient id="paint6_linear_249_135" x1="53.9974" y1="118.666" x2="120.664" y2="51.9994" gradientUnits="userSpaceOnUse">
<stop stop-color="#FFD522"/>
<stop offset="0.497382" stop-color="#F1000B"/>
<stop offset="1" stop-color="#B900B3"/>
</linearGradient>
<linearGradient id="paint7_linear_249_135" x1="53.9999" y1="86.2351" x2="88.2341" y2="52.0009" gradientUnits="userSpaceOnUse">
<stop stop-color="#FFD522"/>
<stop offset="0.497382" stop-color="#F1000B"/>
<stop offset="1" stop-color="#B900B3"/>
</linearGradient>
<linearGradient id="paint8_linear_249_135" x1="71.793" y1="42.207" x2="79.793" y2="34.207" gradientUnits="userSpaceOnUse">
<stop stop-color="#FFD522"/>
<stop offset="0.497382" stop-color="#F1000B"/>
<stop offset="1" stop-color="#B900B3"/>
</linearGradient>
</defs>
</svg>
