<?xml version="1.0" standalone="no"?>
<!DOCTYPE svg PUBLIC "-//W3C//DTD SVG 20010904//EN"
 "http://www.w3.org/TR/2001/REC-SVG-20010904/DTD/svg10.dtd">
<svg version="1.0" xmlns="http://www.w3.org/2000/svg"
 width="225.000000pt" height="225.000000pt" viewBox="0 0 225.000000 225.000000"
 preserveAspectRatio="xMidYMid meet">

<g transform="translate(0.000000,225.000000) scale(0.100000,-0.100000)"
fill="#000000" stroke="none">
<path d="M62 2184 c2 -10 123 -495 269 -1077 145 -581 267 -1057 270 -1057 4
0 1181 1137 1567 1514 l32 31 -1057 299 c-582 165 -1064 302 -1072 304 -10 4
-13 0 -9 -14z m280 -85 c125 -35 228 -66 228 -69 0 -3 -81 -83 -180 -178
l-179 -173 -10 38 c-23 88 -111 443 -111 448 0 4 6 5 13 2 6 -2 114 -33 239
-68z m521 -148 l238 -68 -176 -171 c-96 -95 -179 -172 -183 -172 -4 0 -34 108
-68 240 -33 132 -58 240 -55 240 3 -1 113 -31 244 -69z m-209 -185 c31 -126
54 -231 52 -234 -5 -4 -248 61 -425 114 l-55 16 180 173 c98 95 182 170 185
167 3 -4 32 -110 63 -236z m744 34 c122 -35 222 -67 222 -70 0 -3 -80 -83
-179 -178 l-179 -171 -56 227 c-31 125 -59 236 -63 246 -4 15 -1 18 13 14 11
-3 119 -34 242 -68z m-218 -182 c33 -128 57 -234 55 -237 -5 -4 -442 117 -463
128 -9 5 43 62 164 180 97 95 178 170 181 167 3 -2 31 -109 63 -238z m748 32
c122 -35 221 -66 221 -69 -4 -17 -352 -342 -358 -335 -7 8 -121 451 -121 470
0 3 8 4 18 2 9 -3 117 -34 240 -68z m-221 -180 c34 -132 57 -240 52 -240 -5 0
-115 30 -245 67 l-236 66 179 173 c98 95 181 173 184 173 3 1 33 -107 66 -239z
m-1237 99 c124 -35 227 -64 229 -66 6 -5 -97 -109 -240 -244 l-117 -109 -56
228 c-31 125 -59 236 -63 246 -4 13 -1 17 8 14 8 -3 115 -34 239 -69z m530
-150 c124 -35 227 -64 229 -66 2 -2 -76 -81 -175 -177 -141 -137 -181 -170
-186 -157 -8 16 -118 454 -118 467 0 3 6 4 13 1 6 -2 113 -33 237 -68z m-162
-418 c-11 -4 -449 118 -460 128 -5 4 71 85 168 181 l176 175 63 -240 c34 -132
58 -242 53 -244z m690 269 c122 -35 222 -67 222 -71 0 -9 -339 -339 -349 -339
-4 0 -35 108 -68 241 -52 202 -59 240 -45 236 9 -2 117 -33 240 -67z m-214
-184 c31 -126 54 -231 52 -234 -5 -4 -315 80 -445 120 l-35 11 180 172 c98 95
182 170 185 167 3 -4 32 -110 63 -236z m-485 -116 c3 -3 -75 -83 -172 -179
-97 -96 -178 -172 -180 -170 -6 7 -117 457 -117 472 0 11 55 -2 233 -52 127
-36 234 -68 236 -71z m301 -81 c124 -35 227 -64 229 -66 6 -5 -60 -72 -220
-224 l-137 -129 -56 228 c-31 125 -59 236 -63 246 -4 13 -1 17 8 14 8 -3 115
-34 239 -69z m-205 -198 c31 -123 54 -225 53 -226 -5 -4 -466 129 -473 136 -3
4 74 83 172 178 144 138 179 167 185 153 4 -9 33 -118 63 -241z m-195 -181
c124 -35 229 -66 233 -70 4 -4 -73 -84 -172 -179 l-180 -172 -10 38 c-23 86
-111 443 -111 448 0 4 3 4 8 2 4 -3 108 -33 232 -67z"/>
</g>
</svg>
